<svg width="50" height="50" viewBox="0 0 50 50" fill="none" xmlns="http://www.w3.org/2000/svg">
<path d="M43.4782 39.1304V18.4783H6.52173V39.1304C6.52173 41.5316 8.4127 43.4783 10.7453 43.4783H39.2547C41.5873 43.4783 43.4782 41.5316 43.4782 39.1304Z" fill="#A56644"/>
<path d="M4.3479 10.8696C4.3479 8.46832 6.29449 6.52173 8.69573 6.52173H18.4783V18.4783H4.3479V10.8696Z" fill="#EA2B2B"/>
<path d="M4.3479 18.4783H18.4783V19.0217C18.4783 22.9238 15.3152 26.087 11.4131 26.087C7.51111 26.087 4.3479 22.9238 4.3479 19.0217V18.4783Z" fill="#FF4945"/>
<path d="M18.4783 18.4783H31.5217V19.0217C31.5217 22.9238 28.6019 26.087 25 26.087C21.3982 26.087 18.4783 22.9238 18.4783 19.0217V18.4783Z" fill="white"/>
<path d="M31.5217 18.4783H45.6522V19.0217C45.6522 22.9238 42.489 26.087 38.5869 26.087C34.6849 26.087 31.5217 22.9238 31.5217 19.0217V18.4783Z" fill="#FF4945"/>
<path d="M18.4783 6.52173H31.5217V18.4783H18.4783V6.52173Z" fill="#D0D0D0"/>
<path d="M31.5217 6.52173H41.3043C43.7055 6.52173 45.6522 8.46832 45.6522 10.8696V18.4783H31.5217V6.52173Z" fill="#EA2B2B"/>
<path d="M11.9565 32.6087C11.9565 31.408 12.9298 30.4348 14.1305 30.4348H19.5652C20.7659 30.4348 21.7392 31.408 21.7392 32.6087V43.4782H11.9565V32.6087Z" fill="#B9E8FF"/>
<path d="M26.0869 32.6087C26.0869 31.408 27.0602 30.4348 28.2608 30.4348H36.9565C38.1571 30.4348 39.1304 31.408 39.1304 32.6087V36.9565C39.1304 38.1571 38.1571 39.1304 36.9565 39.1304H28.2608C27.0602 39.1304 26.0869 38.1571 26.0869 36.9565V32.6087Z" fill="#B9E8FF"/>
</svg>
